<svg width="210" height="231" viewBox="0 0 210 231" fill="none" xmlns="http://www.w3.org/2000/svg">
<g filter="url(#filter0_d_4063_761)">
<circle cx="104.839" cy="121.911" r="83.8387" fill="white" stroke="#F48E28" stroke-width="10"/>
<path d="M183.677 121.911C183.677 140.151 177.353 157.827 165.782 171.926C154.211 186.026 138.109 195.677 120.219 199.235C102.33 202.794 83.7604 200.039 67.6744 191.441C51.5884 182.843 38.9813 168.933 32.0012 152.082C25.0212 135.23 24.1 116.48 29.3948 99.0258C34.6895 81.5714 45.8725 66.4929 61.0383 56.3595C76.2041 46.226 94.4143 41.6646 112.566 43.4524C130.718 45.2402 147.689 53.2666 160.586 66.1641L104.839 121.911H183.677Z" fill="#F9C28B"/>
<path d="M183.677 121.911C183.677 137.504 179.054 152.747 170.391 165.712C161.728 178.677 149.415 188.782 135.009 194.749C120.603 200.716 104.751 202.277 89.458 199.235C74.1648 196.193 60.1171 188.685 49.0913 177.659C38.0655 166.633 30.5569 152.585 27.5149 137.292C24.4729 121.999 26.0341 106.147 32.0012 91.7412C37.9684 77.3353 48.0733 65.0224 61.0383 56.3595C74.0032 47.6966 89.2459 43.0728 104.839 43.0728V121.911H183.677Z" fill="white"/>
<path d="M183.677 121.911C183.677 134.877 180.48 147.642 174.368 159.076C168.257 170.51 159.419 180.26 148.639 187.463C137.859 194.666 125.469 199.1 112.566 200.371C99.6636 201.641 86.6466 199.71 74.6684 194.749C62.6903 189.787 52.1205 181.948 43.8956 171.926C35.6706 161.904 30.0442 150.008 27.5149 137.292C24.9855 124.576 25.6312 111.433 29.3948 99.0258C33.1583 86.619 39.9236 75.3318 49.0913 66.1641L104.839 121.911H183.677Z" fill="#F9C28B"/>
<path d="M183.677 121.911C183.677 132.265 181.638 142.517 177.676 152.082C173.714 161.647 167.907 170.338 160.586 177.659C153.265 184.98 144.574 190.787 135.009 194.749C125.444 198.711 115.192 200.75 104.839 200.75C94.4855 200.75 84.2336 198.711 74.6684 194.749C65.1033 190.787 56.4122 184.98 49.0913 177.659C41.7705 170.338 35.9633 161.647 32.0012 152.082C28.0392 142.517 26 132.265 26 121.911L104.839 121.911H183.677Z" fill="white"/>
<path d="M183.677 121.911C183.677 137.504 179.054 152.747 170.391 165.712C161.728 178.677 149.415 188.782 135.009 194.749C120.603 200.716 104.751 202.277 89.458 199.235C74.1648 196.193 60.1171 188.685 49.0913 177.659L104.839 121.911H183.677Z" fill="#F9C28B"/>
<path d="M183.677 121.911C183.677 132.265 181.638 142.517 177.676 152.082C173.714 161.647 167.907 170.338 160.586 177.659C153.265 184.98 144.574 190.787 135.009 194.749C125.444 198.711 115.192 200.75 104.839 200.75V121.911H183.677Z" fill="white"/>
<path d="M183.677 121.911C183.677 132.265 181.638 142.517 177.676 152.082C173.714 161.647 167.907 170.338 160.586 177.659L104.839 121.911H183.677Z" fill="#F9C28B"/>
<circle cx="104.839" cy="121.911" r="18.9065" fill="#F48E28" stroke="#F48E28"/>
<path d="M119.5 34.5823C119.5 39.1522 117.858 43.8606 115.635 48.1332C113.414 52.4006 110.634 56.1966 108.4 58.9327C106.516 61.2404 103.161 61.2404 101.277 58.9327C99.0438 56.1966 96.263 52.4006 94.0426 48.1332C91.8195 43.8606 90.1774 39.1522 90.1774 34.5823C90.1774 27.6239 91.8566 22.2797 94.5196 18.6888C97.1758 15.1071 100.821 13.25 104.839 13.25C108.856 13.25 112.502 15.1071 115.158 18.6888C117.821 22.2797 119.5 27.6239 119.5 34.5823Z" fill="#F48E28" stroke="#F48E28"/>
<circle cx="104.839" cy="27.9112" r="6.77742" fill="white" stroke="#F48E28"/>
</g>
<defs>
<filter id="filter0_d_4063_761" x="0" y="0.75" width="209.677" height="230" filterUnits="userSpaceOnUse" color-interpolation-filters="sRGB">
<feFlood flood-opacity="0" result="BackgroundImageFix"/>
<feColorMatrix in="SourceAlpha" type="matrix" values="0 0 0 0 0 0 0 0 0 0 0 0 0 0 0 0 0 0 127 0" result="hardAlpha"/>
<feOffset dy="4"/>
<feGaussianBlur stdDeviation="8"/>
<feComposite in2="hardAlpha" operator="out"/>
<feColorMatrix type="matrix" values="0 0 0 0 0.956863 0 0 0 0 0.556863 0 0 0 0 0.156863 0 0 0 0.8 0"/>
<feBlend mode="normal" in2="BackgroundImageFix" result="effect1_dropShadow_4063_761"/>
<feBlend mode="normal" in="SourceGraphic" in2="effect1_dropShadow_4063_761" result="shape"/>
</filter>
</defs>
</svg>
