<svg width="46" height="80" viewBox="0 0 46 80" fill="none" xmlns="http://www.w3.org/2000/svg">
<path fill-rule="evenodd" clip-rule="evenodd" d="M38.8584 1.77832C39.944 0.236567 42.2462 0.169794 43.4282 1.65316C43.7142 2.0035 43.9205 2.70181 44.3585 4.80416C45.9767 12.662 45.9627 20.1134 44.2609 27.7561C42.4659 35.8412 38.8627 42.7961 33.9825 47.6517L33.946 47.6883C32.7783 48.8573 32.7593 48.8764 32.5539 50.3356C32.2532 52.2525 31.4698 54.9621 30.6571 56.8756C27.5379 64.1692 20.986 70.709 12.0321 75.4779C9.2317 76.9591 6.72305 78.0983 3.90181 79.1169C2.35698 79.6746 0.69849 78.7302 0.310509 77.1343C-0.0428579 75.6807 0.794143 74.2119 2.19721 73.6931C3.64303 73.1586 5.00884 72.5775 6.51859 71.8712C14.735 68.0483 20.5878 63.1388 24.0339 57.1896C24.9215 55.6595 25.8334 53.7036 25.7706 53.4451C25.7622 53.4106 25.4389 53.5074 25.0634 53.69C24.045 54.1566 20.2186 55.0868 19.061 55.1309C13.6512 55.4055 9.06266 53.1256 6.30739 48.7753C2.7641 43.211 3.42512 36.1682 7.94804 31.3446C9.91506 29.2235 11.8754 28.1263 14.9649 27.3935C17.6193 26.7482 18.7853 26.7386 21.3286 27.2886C25.1823 28.1225 28.1191 30.3658 30.2935 34.0541C30.9572 35.2071 31.2748 35.9879 31.8638 38.0353L32.5874 40.5611L33.5388 39.1433C36.9973 33.9213 39.3932 26.0551 39.772 18.7524C39.9808 14.43 39.672 10.3064 38.822 6.05883C38.2471 3.16828 38.2504 2.65633 38.8584 1.77832ZM27.1099 45.9635C27.2142 45.7921 27.2628 44.9406 27.2168 44.0755C27.1262 42.126 26.5723 39.3217 26.0554 38.0965C25.5808 36.9705 24.6009 35.4927 23.8315 34.7305C21.4458 32.4262 17.3619 31.9221 14.3096 33.5586C9.07701 36.3641 8.13183 43.4395 12.477 47.4215C14.8977 49.6443 18.5558 50.1241 22.3338 48.6945C24.0244 48.0645 26.814 46.4736 27.1099 45.9635Z" fill="#FF8F00"/>
</svg>
