<svg width="64" height="65" viewBox="0 0 64 65" fill="none" xmlns="http://www.w3.org/2000/svg">
<g clip-path="url(#clip0_4069_313)">
<path d="M11.2374 0.700005C9.4499 1.25 8.4249 3.575 9.2249 5.2375C9.3749 5.5375 11.4624 8.4125 13.8749 11.625L18.2499 17.4625L17.8249 18.1875C17.3624 18.9375 16.8249 20.45 16.6874 21.3375L16.5999 21.875H14.3124C12.0499 21.875 12.0249 21.875 11.3624 22.225C10.9374 22.4375 10.5499 22.775 10.3124 23.1125C9.9749 23.6 9.9374 23.75 9.8999 24.8125C9.8499 26.1625 10.0374 26.9125 10.6374 27.7375C11.0749 28.325 11.8374 28.8875 12.5374 29.1375L12.9999 29.3V30.375C12.9999 36.0875 16.7249 41.925 22.0624 44.5625C24.0999 45.5625 25.8124 46.075 28.0374 46.3125L28.7499 46.3875V50.425C28.7499 52.8 28.6999 54.7625 28.6124 55.1875C28.2124 57.325 26.6999 58.65 24.3874 58.8625C23.0624 58.9875 22.2999 59.3625 21.7749 60.15C21.4749 60.6125 21.4374 60.7875 21.4374 61.7C21.4374 62.65 21.4624 62.7625 21.8249 63.275C22.0624 63.6 22.4874 63.95 22.8749 64.15L23.5249 64.5H32.4249H41.3124L41.9624 64.2C43.5624 63.45 44.0374 61.375 42.9374 59.925C42.4874 59.325 41.5124 58.875 40.6749 58.875C38.3999 58.875 36.5249 57.2 36.2499 54.9375C36.1249 53.9375 35.8874 53.625 35.2499 53.625C34.4999 53.625 34.3249 53.925 34.3999 55.1C34.4874 56.2 34.8374 57.175 35.5124 58.0875C35.7374 58.425 35.9624 58.725 35.9749 58.775C35.9999 58.8375 34.3999 58.875 32.4374 58.875H28.8499L29.0499 58.6C29.6999 57.7125 30.0249 57.1 30.2749 56.375C30.5249 55.6125 30.5499 55.2875 30.5999 50.9625L30.6499 46.375H32.5124H34.3749V48.475C34.3749 50.85 34.4249 51 35.2749 51C36.0874 51 36.1874 50.7625 36.2249 48.425L36.2624 46.3875L36.8499 46.3125C41.1499 45.7875 44.4999 44.1625 47.3124 41.2375C50.1749 38.25 51.6249 34.85 51.9374 30.375L52.0124 29.3125L52.7624 28.95C54.0374 28.3375 54.8874 27.1 55.0624 25.6C55.2374 24.025 54.6374 22.725 53.4624 22.175C52.8499 21.9 52.6749 21.875 50.5624 21.875H48.3124L48.0999 20.8375C47.4999 17.95 45.1624 15.2125 42.4374 14.2375L41.6374 13.9375L41.5624 13.375C41.1874 10.2875 39.9374 8.0375 37.6624 6.425C34.6999 4.3 30.6374 4.21251 27.5249 6.2C25.2124 7.6875 23.6124 10.3125 23.3874 12.9625L23.3124 13.9L22.6874 14.1375C22.3499 14.2625 22.0249 14.375 21.9749 14.375C21.9374 14.375 20.3874 11.6 18.5499 8.2125C16.4874 4.425 15.0124 1.8625 14.7124 1.5375C13.8624 0.625004 12.5249 0.300003 11.2374 0.700005ZM13.1249 2.65001C13.4499 2.8875 14.1999 4.15001 16.8499 9C18.6624 12.3375 20.1749 15.15 20.2124 15.25C20.2374 15.3625 20.0999 15.5625 19.8874 15.725L19.4999 16L15.1874 10.25C12.7499 7 10.8749 4.375 10.8624 4.21251C10.8124 3.325 10.9749 2.96251 11.5374 2.625C12.0624 2.3 12.6249 2.3125 13.1249 2.65001ZM34.1749 6.875C35.5499 7.225 36.5499 7.8 37.5624 8.8125C38.7874 10.0375 39.6249 11.7875 39.6249 13.15V13.625H38.9999C36.9624 13.625 34.5749 14.6 33.0124 16.0625L32.4124 16.625L32.0499 16.2375C31.4624 15.6125 30.1749 14.75 29.2749 14.375C28.2874 13.9625 26.7749 13.625 25.8749 13.625C25.2499 13.625 25.2499 13.625 25.2499 13.2125C25.2499 11.625 26.4874 9.35 27.9624 8.2125C29.8374 6.77501 31.9874 6.3125 34.1749 6.875ZM28.0249 15.9125C29.1249 16.3125 30.1124 16.9125 30.7749 17.5875L31.2874 18.1125L30.9499 18.8625C30.5749 19.7125 30.3124 20.55 30.1874 21.3375L30.0999 21.875H24.2999C21.1124 21.875 18.4999 21.825 18.4999 21.775C18.4999 21.725 18.5874 21.35 18.6874 20.95C19.3374 18.45 21.3624 16.4375 23.8999 15.75C25.1374 15.4125 26.8374 15.475 28.0249 15.9125ZM40.7624 15.675C43.5124 16.2625 45.7999 18.625 46.3124 21.4L46.3999 21.875H39.1999C35.2374 21.875 31.9999 21.825 31.9999 21.775C31.9999 21.725 32.0874 21.35 32.1874 20.9625C32.6999 18.975 34.1624 17.1875 36.0374 16.225C37.3249 15.575 39.2124 15.35 40.7624 15.675ZM52.8624 23.9875C53.1999 24.325 53.3124 25.0125 53.1374 25.7125C52.9374 26.5 52.5624 26.9875 51.9499 27.2625C51.4624 27.4875 50.7999 27.5 36.4874 27.5C21.6249 27.5 21.5499 27.5 21.2749 27.75C20.8999 28.1 20.8999 28.775 21.2749 29.125C21.5499 29.375 21.6249 29.375 35.8499 29.375H50.1374L50.0624 30.4C49.8749 32.8375 49.3874 34.65 48.3999 36.5625C46.4624 40.3125 42.9999 43.025 38.7624 44.1L37.4374 44.4375H32.4999C27.2624 44.4375 27.1124 44.425 25.0624 43.7875C19.3749 42.0125 15.2124 36.7125 14.9124 30.8375L14.8374 29.375H16.3374C17.6624 29.375 17.8624 29.35 18.0999 29.125C18.4749 28.775 18.4749 28.1 18.0999 27.75C17.8499 27.5125 17.6749 27.5 15.6374 27.5C13.0624 27.5 12.5999 27.3625 12.0624 26.45C11.6374 25.725 11.6124 24.475 12.0249 24.0375L12.2874 23.75H32.4624C52.2624 23.75 52.6249 23.75 52.8624 23.9875ZM41.2499 60.875C41.7874 61.1625 41.7499 62.325 41.1874 62.55C41.0749 62.5875 37.1249 62.625 32.3999 62.625H23.8249L23.5374 62.35C23.1624 62 23.1624 61.425 23.5249 61.0375L23.7874 60.75H32.3999C37.7874 60.75 41.0999 60.8 41.2499 60.875Z" fill="#FF8F00"/>
</g>
<defs>
<clipPath id="clip0_4069_313">
<rect width="64" height="64" fill="white" transform="translate(0 0.5)"/>
</clipPath>
</defs>
</svg>
