<svg width="64" height="65" viewBox="0 0 64 65" fill="none" xmlns="http://www.w3.org/2000/svg">
<path d="M0.627796 0.692532C-0.00997772 1.04268 0.00252767 0.867607 0.00252767 9.58385C-0.0099777 18.7128 -0.00997772 18.7253 0.865398 20.501C1.47816 21.7266 2.66617 22.9896 3.84168 23.6524L4.61701 24.0901L4.64202 42.9107L4.67954 61.7312L4.94215 62.3065C5.32982 63.1318 5.91757 63.7321 6.71791 64.1323C7.30566 64.4199 7.59329 64.4824 8.36862 64.4824C9.93179 64.4824 11.1448 63.7071 11.7951 62.3065L12.0577 61.7312L12.0952 42.9107L12.1327 24.0901L12.9081 23.6524C14.0711 22.9896 15.2591 21.7266 15.8718 20.501C16.7472 18.7253 16.7472 18.7003 16.7472 9.60886C16.7472 0.817589 16.7597 0.980156 16.0594 0.667522C15.6467 0.479942 15.3466 0.479942 14.9339 0.667522C14.2461 0.980156 14.2461 0.917629 14.2461 8.39584V15.2738H13.1207H11.9952V8.39584C11.9952 3.34367 11.9577 1.44286 11.8451 1.20525C11.6825 0.842598 11.1573 0.51746 10.7446 0.51746C10.332 0.51746 9.80674 0.842598 9.64417 1.20525C9.53162 1.44286 9.4941 3.34367 9.4941 8.39584V15.2738H8.36862H7.24314V8.39584C7.24314 3.34367 7.20562 1.44286 7.09307 1.20525C6.83046 0.6175 6.06763 0.367393 5.42986 0.667522C4.74206 0.980156 4.74206 0.917629 4.74206 8.39584V15.2738H3.61658H2.4911V8.39584C2.4911 3.34367 2.45358 1.44286 2.34103 1.20525C2.06591 0.604996 1.24056 0.354889 0.627796 0.692532ZM14.0836 18.2001C13.871 19.5381 12.4329 21.2263 11.0448 21.7641C10.6446 21.9267 10.1569 22.2143 9.96931 22.4144L9.61916 22.777V41.9227C9.61916 62.7317 9.65667 61.5687 8.93136 61.8938C8.51869 62.0814 8.21856 62.0814 7.80588 61.8938C7.08057 61.5687 7.11808 62.7317 7.11808 41.9227V22.802L6.79294 22.4144C6.61787 22.2018 6.40528 22.0267 6.31774 22.0267C5.93007 22.0267 4.61701 21.2263 4.02926 20.6386C3.36647 19.9758 2.76621 18.9129 2.65367 18.2001L2.57863 17.7749H8.36862H14.1586L14.0836 18.2001Z" fill="#FF8F00"/>
<path d="M61.6914 1.00517C60.5535 1.76799 58.9403 3.21862 57.8648 4.44415C55.2262 7.42042 53.4129 11.147 52.6125 15.1738C52.3374 16.5493 52.3374 16.862 52.2874 26.291C52.2499 37.0081 52.2374 36.8706 53.0252 38.4337C53.3128 38.9965 53.8506 39.6593 54.9636 40.7847L56.5142 42.3604L56.5392 52.0521C56.5767 61.5937 56.5767 61.7437 56.8394 62.3065C57.227 63.1318 57.8148 63.7321 58.6151 64.1323C59.2029 64.4199 59.4905 64.4824 60.2658 64.4824C61.829 64.4824 63.042 63.7071 63.6923 62.3065L63.9549 61.7312L63.9924 31.6558C64.0174 9.15867 63.9799 1.49288 63.8799 1.23026C63.7173 0.842598 63.1921 0.51746 62.7294 0.51746C62.5543 0.51746 62.0916 0.742554 61.6914 1.00517ZM61.3788 61.3311C61.2162 61.7062 60.691 62.0439 60.2658 62.0439C59.9032 62.0439 59.3154 61.7187 59.1904 61.4561C59.1278 61.3311 59.0528 56.7416 59.0153 51.2642L58.9528 41.2975L57.1895 39.5092C56.039 38.3337 55.3262 37.5083 55.1261 37.0957L54.826 36.4704L54.7885 27.2915C54.7635 19.6882 54.7885 17.8499 54.951 16.6619C55.5013 12.3725 57.4146 8.43336 60.3909 5.40706L61.4538 4.3316L61.4914 32.6563C61.5164 53.7903 61.4789 61.0685 61.3788 61.3311Z" fill="#FF8F00"/>
<path d="M29.2525 8.78362C26.9516 9.04624 24.1128 9.84658 22.062 10.822C20.8114 11.4098 20.4988 11.7224 20.4988 12.3727C20.4988 12.9479 21.074 13.5232 21.6368 13.5232C21.8619 13.5232 22.7748 13.223 23.6751 12.8479C27.3017 11.3347 31.0033 10.8345 34.7924 11.3347C39.3319 11.935 43.221 13.7733 46.6225 16.9621C47.798 18.0501 47.9356 18.1501 48.3983 18.1501C49.1236 18.1501 49.6363 17.6249 49.6363 16.8871C49.6363 16.3994 49.5738 16.2994 48.6984 15.449C44.8092 11.6724 39.8946 9.37138 34.4798 8.78362C33.0792 8.62105 30.6281 8.63356 29.2525 8.78362Z" fill="#FF8F00"/>
<path d="M30.1905 14.8484C27.4518 15.1486 24.413 16.274 22.0119 17.8747C20.6113 18.8001 18.2728 21.1386 17.3474 22.5267C15.9969 24.5651 15.109 26.6535 14.5963 29.017C14.2086 30.7302 14.2211 34.3068 14.5963 36.045C16.1469 43.1356 21.4367 48.4128 28.5397 49.9385C30.3655 50.3262 33.6419 50.3262 35.4552 49.9385C37.281 49.5508 38.5065 49.1131 40.1447 48.2628C44.9093 45.8242 48.2482 41.3973 49.4112 35.995C49.7739 34.2943 49.7989 31.0179 49.4612 29.3422C48.3483 23.7147 44.8593 19.1128 39.8196 16.6117C37.4436 15.4362 35.2676 14.911 32.504 14.8359C31.5035 14.8109 30.4656 14.8234 30.1905 14.8484ZM34.2672 17.4621C39.1568 18.1999 43.4086 21.2887 45.6721 25.7781C46.2974 27.0287 46.8601 28.8044 47.0727 30.2676C48.3232 38.5586 42.5708 46.3495 34.2547 47.6125C27.6644 48.6004 21.1366 45.1239 18.2478 39.0963C14.8339 31.9558 17.4475 23.4771 24.3129 19.3754C27.2142 17.6371 30.8407 16.9368 34.2672 17.4621Z" fill="#FF8F00"/>
<path d="M31.4285 21.1513C31.0158 21.3139 30.7532 21.7766 30.7532 22.3143C30.7532 23.5649 32.5039 23.9901 33.0792 22.8896C33.6419 21.7891 32.579 20.6761 31.4285 21.1513Z" fill="#FF8F00"/>
<path d="M26.8266 22.2891C23.5001 23.9648 21.1491 27.2663 20.6364 30.9678C20.4113 32.5935 20.4363 32.8687 20.924 33.3564C21.3992 33.8316 21.7994 33.8941 22.3621 33.594C22.7998 33.3689 22.9374 33.0062 23.1 31.5806C23.25 30.2675 23.6752 28.942 24.2755 27.929C24.9007 26.8536 26.5139 25.3154 27.6894 24.6651C28.2397 24.3525 28.7899 24.0274 28.9024 23.9273C29.2276 23.6522 29.3151 23.0019 29.0775 22.5517C28.6773 21.7889 27.9645 21.7014 26.8266 22.2891Z" fill="#FF8F00"/>
<path d="M49.3612 45.3868C49.2487 45.4369 48.4859 46.1747 47.6855 47.0251C44.4466 50.414 41.1952 52.3148 36.8434 53.3528C31.6411 54.5908 25.8887 53.7279 21.3117 51.0393C20.6114 50.6266 20.0361 50.3765 19.786 50.3765C18.9232 50.3515 18.2979 51.2519 18.623 52.0522C18.8231 52.5149 19.5109 52.9776 21.3117 53.878C31.391 58.9302 43.6338 56.2415 50.6743 47.4377C50.8869 47.1626 51.0119 46.85 51.0119 46.5874C51.0119 45.812 50.024 45.0992 49.3612 45.3868Z" fill="#FF8F00"/>
<path d="M15.3842 47.4626C15.2216 47.5501 15.009 47.7627 14.9215 47.9253C14.2212 49.1883 15.8719 50.4389 16.8848 49.4259C17.8978 48.413 16.6472 46.7623 15.3842 47.4626Z" fill="#FF8F00"/>
</svg>
