<svg width="65" height="65" viewBox="0 0 65 65" fill="none" xmlns="http://www.w3.org/2000/svg">
<g clip-path="url(#clip0_4063_689)">
<path d="M25.45 0.674974C25.025 0.974975 23.675 3.14997 23.5125 3.78747C23.3 4.67497 23.4375 5.77497 23.8875 6.67497C24.5125 7.93747 24.4625 8.27497 23.525 9.74997C23.1125 10.3875 22.775 11.05 22.775 11.225C22.775 11.3875 22.9375 11.6875 23.1375 11.8875C23.8125 12.5625 24.3625 12.3375 25.25 11.025C26.2125 9.57497 26.45 8.97497 26.45 7.91247C26.4375 7.13747 26.375 6.88747 25.9875 6.07497C25.3125 4.69997 25.3625 4.39997 26.5125 2.68747C27.125 1.78747 27.175 1.26248 26.7125 0.812474C26.375 0.462475 25.8375 0.399975 25.45 0.674974Z" fill="#FF8F00"/>
<path d="M32.9125 0.699785C32.525 0.974786 31.1875 3.02479 31.025 3.59979C30.9625 3.84979 30.9 4.42479 30.9 4.87479C30.9 5.56229 30.975 5.84979 31.35 6.62479C31.975 7.92479 31.925 8.34979 30.9875 9.74978C30.1625 10.9873 30.1 11.3498 30.6375 11.8873C31.325 12.5748 31.825 12.3498 32.8 10.8998C33.65 9.64979 33.9 8.94978 33.9 7.89979C33.9 7.18728 33.825 6.91229 33.4625 6.13729C32.8125 4.78729 32.85 4.42479 33.775 3.01229C34.1875 2.38729 34.525 1.76229 34.525 1.62479C34.525 0.749785 33.6 0.224786 32.9125 0.699785Z" fill="#FF8F00"/>
<path d="M40.3875 0.624851C40.275 0.687351 39.85 1.26235 39.425 1.89985C38.15 3.83735 38 5.14985 38.8875 6.81235C39.4625 7.88735 39.4125 8.23735 38.525 9.62485C37.7 10.9124 37.5875 11.4374 38.025 11.8749C38.6875 12.5374 39.3125 12.2999 40.125 11.0999C41.225 9.46235 41.3375 9.18735 41.3375 7.98735C41.3375 7.03735 41.3 6.83735 40.9375 6.11235C40.275 4.79985 40.3125 4.49985 41.275 2.99985C41.6875 2.36235 42.025 1.69985 42.025 1.52485C42.025 0.849851 40.9875 0.274851 40.3875 0.624851Z" fill="#FF8F00"/>
<path d="M27.025 14.5124C18.2625 15.0124 10.6 16.5999 5.82502 18.9249C3.18752 20.2249 1.57502 21.5999 0.787524 23.2499L0.462524 23.9374V27.4999C0.475024 30.2499 0.525024 31.3874 0.687524 32.4999C2.05002 41.3749 6.81252 48.9874 14.0875 53.8624C14.9875 54.4624 16.35 55.2749 17.125 55.6624L18.525 56.3874V58.4749C18.525 60.2499 18.5625 60.6374 18.7625 61.0874C19.7375 63.2374 26.1875 64.6874 33.7125 64.4624C40.15 64.2624 44.5875 63.1374 45.8375 61.3874L46.2125 60.8499L46.25 58.6124L46.2875 56.3749L47.75 55.6249C55.025 51.9124 60.6375 45.1249 63.075 37.1124C64.0625 33.8374 64.45 30.7249 64.375 26.5624L64.3375 23.9374L63.925 23.0874C61.9125 18.9999 53.3 15.8749 41.025 14.7499C36.95 14.3874 31.1125 14.2874 27.025 14.5124ZM37.3375 16.6249C45.5 17.0624 52.4375 18.3999 57.2875 20.4874C58.975 21.2249 60.125 21.9499 61.1 22.9249C62.35 24.1874 62.55 25.0374 61.8625 26.2749C61.725 26.5374 61.5625 26.7499 61.5 26.7499C61.45 26.7499 61.0875 26.5499 60.6875 26.2999C56.6125 23.6874 49.125 21.7999 39.8375 21.0374C36.4 20.7624 28.4 20.7624 24.9625 21.0374C15.7 21.7999 8.17502 23.6874 4.11252 26.2999C3.71252 26.5499 3.35002 26.7499 3.28752 26.7499C3.11252 26.7499 2.52502 25.4999 2.52502 25.1499C2.52502 23.9749 3.85002 22.4249 5.77502 21.3374C10.2875 18.8124 18.6375 17.0374 28.2125 16.5874C30.1625 16.4874 35.2 16.5124 37.3375 16.6249ZM36.65 22.9999C45.9875 23.4499 53.225 24.9124 58.1375 27.3374C60.1 28.2999 60.125 28.1499 57.8375 29.2499C55.8875 30.1999 54.2125 30.8124 52.2125 31.3124L50.5875 31.7249L50.5 30.9749C50.375 29.8999 50.0875 29.1249 49.5125 28.3249C48.05 26.2749 45.1625 25.5374 42.925 26.6374C41.825 27.1749 40.875 28.1374 40.3625 29.2124C40 29.9874 39.9625 30.1624 39.9625 31.3124C39.9625 31.9999 40 32.7124 40.05 32.8999C40.15 33.2249 40.1375 33.2249 39.4 33.3124C37.9875 33.4749 32.375 33.5624 29.175 33.4749C21.6625 33.2749 14.9375 32.2124 9.71252 30.4124C8.03752 29.8249 5.41252 28.6249 5.16252 28.3249C5.03752 28.1749 5.31252 27.9999 6.67502 27.3249C13.075 24.1499 24.9625 22.4374 36.65 22.9999ZM46.6125 28.5499C47.175 28.8374 47.8125 29.4874 48.075 30.0624C48.325 30.5749 48.475 31.8499 48.3125 32.0874C48.2125 32.2249 44.975 32.7749 43.2625 32.9499C42.475 33.0249 42.4125 33.0124 42.2625 32.7374C42.15 32.5499 42.0875 32.0374 42.0875 31.4374C42.0875 30.5749 42.1375 30.3624 42.4375 29.8499C42.825 29.1874 43.425 28.6874 44.1125 28.4249C44.7125 28.1999 46.075 28.2624 46.6125 28.5499ZM5.56252 31.0249C13.7875 35.1499 30.525 36.7874 44.875 34.8749C52.2125 33.8999 57.825 32.1624 61.2625 29.8249L62.2625 29.1374L62.2 29.9749C61.7 36.1874 59.6125 41.5874 55.9 46.2499C54.725 47.7249 52.2125 50.1499 50.7 51.2749C46.5125 54.3874 41.4625 56.3624 36.4125 56.8749C34.75 57.0374 30 57.0374 28.425 56.8749C21.8625 56.1749 15.9875 53.4124 11.3 48.8249C9.03752 46.6124 7.41252 44.4749 5.93752 41.7749C4.23752 38.6624 3.00002 34.5624 2.71252 31.1249C2.67502 30.6124 2.61252 29.9499 2.57502 29.6499L2.51252 29.1249L3.52502 29.8124C4.08752 30.1999 5.00002 30.7374 5.56252 31.0249ZM24.675 58.4249C27.125 58.9624 28.9 59.1249 32.3875 59.1249C36.8625 59.1249 39.5625 58.7499 42.875 57.6874L44.15 57.2749V58.7499C44.15 60.2249 44.15 60.2374 43.8125 60.4749C42.925 61.0999 40.0375 61.8249 37.15 62.1499C35.05 62.3749 29.2625 62.3499 27.1875 62.0874C24.3125 61.7249 21.95 61.1374 21.1125 60.5749L20.7125 60.2999L20.675 58.7874L20.6375 57.2749L21.9625 57.6999C22.6875 57.9249 23.9125 58.2499 24.675 58.4249Z" fill="#FF8F00"/>
<path d="M24.2125 25.1125C22.8 25.4625 21.7875 26.7125 21.775 28.1125C21.775 29.05 21.9875 29.675 22.55 30.3125C23.2125 31.0625 23.9 31.375 24.9125 31.375C26.375 31.375 27.575 30.5 27.975 29.1625C28.2 28.425 28.2 28.075 27.95 27.2625C27.5 25.725 25.775 24.7375 24.2125 25.1125ZM25.675 27.4625C25.9875 27.75 26.075 28.3 25.85 28.725C25.3625 29.6625 23.9 29.2875 23.9 28.2125C23.9 27.8 24.2125 27.375 24.65 27.2125C24.9125 27.1125 25.425 27.2375 25.675 27.4625Z" fill="#FF8F00"/>
<path d="M35.0125 26.2875C34.75 26.4875 34.525 26.925 34.525 27.25C34.525 27.625 35.1875 28.25 35.5875 28.25C36.0625 28.25 36.65 27.625 36.65 27.125C36.65 26.3625 35.6125 25.825 35.0125 26.2875Z" fill="#FF8F00"/>
<path d="M14.95 27.25C14.2625 27.525 14.075 28.4375 14.5875 28.9375C15.225 29.5875 16.4 29.1375 16.4 28.2625C16.4 27.55 15.575 26.9875 14.95 27.25Z" fill="#FF8F00"/>
<path d="M6.55007 35.9375C5.91257 36.475 6.03757 37.075 7.33757 39.8125C8.61257 42.45 10.0626 44.5125 12.2126 46.7375C16.5251 51.175 21.9376 53.8875 28.0626 54.6875C29.5751 54.875 31.4751 54.9375 31.8376 54.8C32.0751 54.7 32.4001 54.1125 32.4001 53.75C32.4001 53.6 32.2376 53.3125 32.0376 53.1125C31.7001 52.775 31.6001 52.75 30.7251 52.75C27.7626 52.75 23.8001 51.7875 20.7251 50.3375C15.2876 47.75 10.6376 42.75 8.52507 37.2125C8.07507 36.05 7.87507 35.7875 7.32507 35.675C7.02507 35.625 6.86257 35.675 6.55007 35.9375Z" fill="#FF8F00"/>
</g>
<defs>
<clipPath id="clip0_4063_689">
<rect width="64" height="64" fill="white" transform="translate(0.400024 0.5)"/>
</clipPath>
</defs>
</svg>
