<svg width="65" height="65" viewBox="0 0 65 65" fill="none" xmlns="http://www.w3.org/2000/svg">
<g clip-path="url(#clip0_4063_712)">
<path d="M28.0349 12.3856C27.8349 12.5984 27.6724 12.9043 27.6724 13.0638C27.6724 13.2234 27.8349 13.5293 28.0349 13.742L28.3974 14.1277H30.0349H31.6724V15.258V16.375L31.2724 16.4415C31.0474 16.4681 30.2599 16.5612 29.5349 16.641C25.4349 17.0665 20.9849 18.7686 17.3599 21.3085C12.4224 24.7793 8.75991 29.5931 6.60991 35.4574C5.63491 38.1037 4.79741 42.1862 4.79741 44.2872V45.0718L4.00991 45.1383C2.18491 45.2979 0.847413 46.7074 0.709913 48.6223C0.597413 50.1516 1.44741 51.6809 2.77241 52.3324L3.35991 52.625H32.6724H61.9849L62.5724 52.3324C65.8974 50.7101 65.0099 45.4574 61.3599 45.1383L60.5849 45.0851L60.4474 43.3963C60.1224 39.7527 59.2349 36.4282 57.7474 33.1835C53.5974 24.2207 45.8474 18.1835 36.5849 16.7207C35.8724 16.6144 35.0224 16.5213 34.6849 16.5213C33.6849 16.5213 33.6724 16.508 33.6724 15.2447V14.1277H35.3099H36.9474L37.3099 13.742C37.5099 13.5293 37.6724 13.2234 37.6724 13.0638C37.6724 12.9043 37.5099 12.5984 37.3099 12.3856L36.9474 12H32.6724H28.3974L28.0349 12.3856ZM36.0099 18.7154C45.8099 20.0718 54.1724 27.3856 57.2849 37.3324C58.0224 39.6729 58.3224 41.2952 58.6099 44.2739L58.6849 45.1117H32.6724H6.65991L6.73491 44.008C7.73491 31.0027 17.0849 20.484 29.1849 18.7287C30.9599 18.4761 34.1974 18.4628 36.0099 18.7154ZM61.4849 47.2394C62.1974 47.4122 62.6724 48.0372 62.6724 48.8085C62.6724 49.4867 62.3974 50.0452 61.9224 50.3511C61.5974 50.5505 59.1974 50.5638 32.6724 50.5638C6.14741 50.5638 3.74741 50.5505 3.42241 50.3511C2.60991 49.8324 2.40991 48.5691 3.02241 47.7846C3.22241 47.5319 3.53491 47.3059 3.79741 47.2394C4.40991 47.0931 60.8599 47.0798 61.4849 47.2394Z" fill="#FF8F00"/>
</g>
<defs>
<clipPath id="clip0_4063_712">
<rect width="64" height="64" fill="white" transform="translate(0.199951 0.5)"/>
</clipPath>
</defs>
</svg>
