<svg width="65" height="65" viewBox="0 0 65 65" fill="none" xmlns="http://www.w3.org/2000/svg">
<path d="M27.6 2.7249C27.4125 2.8749 27.2875 3.1624 27.225 3.5749C27.1625 3.9124 26.9 4.5749 26.6125 5.0624C25.75 6.5499 25.775 7.9249 26.6875 9.4249C27.35 10.4999 27.375 11.0999 26.8 12.0374C26.5625 12.4374 26.2875 12.9499 26.2125 13.1874C26.0625 13.5749 26.075 13.6624 26.3125 13.9624C26.6375 14.4124 27.125 14.5874 27.5125 14.4124C28 14.1874 29.0625 12.2374 29.175 11.3874C29.3 10.4249 29.075 9.4749 28.5125 8.5749C27.85 7.4999 27.825 6.8999 28.4 5.9499C29.275 4.5124 29.4625 3.3624 28.9125 2.8124C28.55 2.4374 28 2.3999 27.6 2.7249Z" fill="#FF8F00"/>
<path d="M32.6001 2.72504C32.4126 2.87504 32.2876 3.16254 32.2251 3.57504C32.1626 3.91254 31.9001 4.57504 31.6126 5.06254C30.7501 6.55004 30.7751 7.92504 31.6876 9.42504C32.3501 10.5 32.3751 11.1 31.8001 12.05C30.9251 13.4875 30.7376 14.6375 31.2876 15.1875C31.9376 15.85 32.8126 15.4625 32.9751 14.425C33.0376 14.0875 33.3001 13.425 33.5876 12.9375C34.4501 11.45 34.4251 10.075 33.5126 8.57504C32.8501 7.50004 32.8251 6.90004 33.4001 5.95004C34.2751 4.51254 34.4626 3.36254 33.9126 2.81254C33.5501 2.43754 33.0001 2.40004 32.6001 2.72504Z" fill="#FF8F00"/>
<path d="M37.6 2.7249C37.4125 2.8749 37.2875 3.1624 37.225 3.5749C37.1625 3.9124 36.9 4.5749 36.6125 5.0624C35.75 6.5499 35.775 7.9249 36.6875 9.4249C37.35 10.4999 37.375 11.0999 36.8 12.0374C36.5625 12.4374 36.2875 12.9499 36.2125 13.1874C36.0625 13.5749 36.075 13.6624 36.3125 13.9624C36.6375 14.4124 37.125 14.5874 37.5125 14.4124C38 14.1874 39.0625 12.2374 39.175 11.3874C39.3 10.4249 39.075 9.4749 38.5125 8.5749C37.85 7.4999 37.825 6.8999 38.4 5.9499C39.275 4.5124 39.4625 3.3624 38.9125 2.8124C38.55 2.4374 38 2.3999 37.6 2.7249Z" fill="#FF8F00"/>
<path d="M10.0625 10.65C9.96251 10.7375 8.90001 12.0125 7.73751 13.4875C5.43751 16.3625 5.31251 16.6 5.88751 17.1625C6.07501 17.35 6.62501 17.55 7.61251 17.7875L9.05001 18.1375L9.00001 18.8875C8.90001 20.3125 9.40001 21.95 10.325 23.15C11.25 24.3625 14.3125 26.525 17.1875 27.975C19.125 28.95 21.7125 29.95 23.45 30.3875L24.6 30.6875V32.025C24.6 32.775 24.575 33.375 24.5375 33.375C24.5125 33.375 24.0375 33.175 23.5 32.9375C22.325 32.425 21.3125 31.8625 20.2375 31.1375C18.5125 29.9625 17.1 29.6 15.1875 29.85C14.55 29.925 13.725 30.0875 13.35 30.2125C12.9625 30.3375 12.6625 30.375 12.6375 30.3125C12.6125 30.2375 12.3 29.625 11.9375 28.9375C11.2375 27.5875 10.925 27.325 10.2875 27.575C10.1 27.6375 9.08751 28.7875 7.78751 30.425C5.43751 33.3625 5.31251 33.6 5.88751 34.1625C6.07501 34.35 6.62501 34.55 7.60001 34.7875L9.05001 35.1375L9.00001 35.975C8.88751 38.075 9.80001 39.975 11.6625 41.4625C14.85 44.0125 19.6625 46.4375 23.425 47.3875L24.575 47.675L24.6375 49.375C24.7 51.2625 24.975 52.2875 25.75 53.6C26.225 54.4 27.6375 55.875 28.2125 56.175L28.6 56.3875V59.1375V61.8875L28.9125 62.1875L29.2125 62.5H32.6H35.9875L36.2875 62.1875C36.6 61.8875 36.6 61.8875 36.6125 59.1625V56.4375L37.3875 55.8625C38.8625 54.775 39.9875 53.0125 40.4 51.1625C40.5125 50.6625 40.6 49.6875 40.6 48.975V47.6875L42.0875 47.2875C44.775 46.575 48.175 45.0875 50.5375 43.5875C52.3375 42.45 54.2875 40.9125 54.825 40.225C55.7875 38.975 56.3125 37.3375 56.2 35.8875L56.15 35.1375L57.5875 34.7875C58.575 34.55 59.125 34.35 59.325 34.1625C59.8875 33.6 59.7625 33.3625 57.4125 30.425C56.1125 28.7875 55.1 27.6375 54.9125 27.575C54.275 27.325 53.9625 27.5875 53.2625 28.9375C52.9 29.625 52.5875 30.2375 52.5625 30.3125C52.5375 30.375 52.2375 30.3375 51.85 30.2125C51.475 30.0875 50.65 29.925 50.0125 29.85C48.1 29.6 46.6875 29.9625 44.9625 31.1375C43.8875 31.8625 42.875 32.425 41.7 32.9375C41.1625 33.175 40.6875 33.375 40.6625 33.375C40.625 33.375 40.6 32.775 40.6 32.025V30.6875L42.0875 30.2875C44.7625 29.575 48.175 28.075 50.5375 26.5875C52.3375 25.45 54.2875 23.9125 54.825 23.225C55.7875 21.975 56.3125 20.3375 56.2 18.8875L56.15 18.1375L57.5875 17.7875C58.575 17.55 59.125 17.35 59.325 17.1625C59.8875 16.6 59.7625 16.3625 57.4125 13.425C56.1125 11.7875 55.1 10.6375 54.9125 10.575C54.275 10.325 53.9625 10.5875 53.2625 11.9375C52.9 12.625 52.5875 13.2375 52.5625 13.3125C52.5375 13.375 52.2375 13.3375 51.85 13.2125C51.475 13.0875 50.65 12.925 50.0125 12.85C48.0375 12.6 46.7125 12.95 44.7875 14.25C42.775 15.6125 40.45 16.575 37.85 17.15C36.6375 17.4125 36.2375 17.4375 32.6 17.4375C28.9625 17.4375 28.5625 17.4125 27.35 17.15C24.75 16.575 22.425 15.6125 20.4125 14.25C18.6375 13.05 17.3625 12.6625 15.6625 12.8C15.1125 12.8375 14.325 12.9625 13.9125 13.075C13.5 13.175 13.05 13.2875 12.9125 13.325C12.7 13.3875 12.5625 13.2 12.0375 12.125C11.6875 11.425 11.3 10.775 11.1625 10.675C10.8625 10.4625 10.3375 10.45 10.0625 10.65ZM10.5875 15.1C10.35 15.3625 10.05 15.725 9.91251 15.9125C9.67501 16.225 9.63751 16.2375 9.07501 16.1C8.73751 16.025 8.47501 15.9125 8.47501 15.85C8.47501 15.7875 8.91251 15.2 9.43751 14.5375L10.4 13.35L10.7125 13.975L11.025 14.6125L10.5875 15.1ZM55.775 14.5625C56.3 15.2125 56.725 15.7875 56.725 15.85C56.725 15.9125 56.4625 16.025 56.1375 16.1C55.5625 16.2375 55.525 16.225 55.2875 15.9125C55.15 15.725 54.85 15.3625 54.6125 15.1L54.1875 14.6125L54.475 14C54.6375 13.65 54.775 13.375 54.8 13.375C54.8125 13.375 55.25 13.9125 55.775 14.5625ZM17.85 15.0875C18.1625 15.225 18.9125 15.6625 19.5125 16.05L20.6125 16.775L21.725 19C22.35 20.25 22.95 21.3 23.0875 21.375C23.725 21.7125 24.6 21.2375 24.6 20.5625C24.6 20.3875 24.375 19.8 24.1 19.25C23.825 18.7 23.6 18.225 23.6 18.2C23.6 18.1625 23.9875 18.275 24.4625 18.4375C24.9375 18.6 25.65 18.8 26.0375 18.8875L26.75 19.05L27.85 20.6875C28.4625 21.6 29.05 22.375 29.1625 22.425C29.825 22.675 30.6 22.2 30.6 21.5375C30.6 21.325 30.375 20.8375 30.0375 20.3375L29.475 19.5H31.3125H33.15L34.6625 21C35.975 22.2875 36.2375 22.5 36.5875 22.5C37.1125 22.5 37.6 22.025 37.6 21.4875C37.6 21.175 37.4375 20.925 36.7875 20.25L35.975 19.4125L36.7 19.3375C37.1 19.2875 37.8875 19.1625 38.4625 19.05L39.4875 18.8375L40.8375 20.175C41.9875 21.3 42.25 21.5 42.5875 21.5C43.1125 21.5 43.6 21.025 43.6 20.4875C43.6 20.1625 43.425 19.925 42.65 19.125L41.7125 18.15L43.1375 17.475C43.925 17.0875 45.15 16.4125 45.8625 15.95C47.7 14.775 48.425 14.5875 50.225 14.8875C51.9125 15.15 53.075 15.975 53.75 17.35C54.1125 18.0875 54.1625 18.3 54.1625 19.25C54.1625 20.2 54.125 20.4125 53.75 21.15C53.2875 22.0875 52.7875 22.5875 50.975 23.875C47.0875 26.6375 42.55 28.45 37.6 29.2125C35.5375 29.525 29.65 29.525 27.6 29.2125C22.8375 28.475 18.7875 26.9125 14.8375 24.3C12.8375 22.9625 11.975 22.175 11.475 21.2C11.075 20.4125 11.0375 20.25 11.0375 19.2625C11.0375 18.3625 11.0875 18.075 11.3625 17.4875C12.2375 15.6375 13.9875 14.7 16.4125 14.8C16.95 14.825 17.5 14.925 17.85 15.0875ZM10.5875 32.1C10.35 32.3625 10.05 32.725 9.91251 32.9125C9.67501 33.225 9.63751 33.2375 9.07501 33.1C8.73751 33.025 8.47501 32.9125 8.47501 32.85C8.47501 32.7875 8.91251 32.2 9.43751 31.5375L10.4 30.35L10.7125 30.975L11.025 31.6125L10.5875 32.1ZM55.775 31.5625C56.3 32.2125 56.725 32.7875 56.725 32.85C56.725 32.9125 56.4625 33.025 56.1375 33.1C55.5625 33.2375 55.525 33.225 55.2875 32.9125C55.15 32.725 54.85 32.3625 54.6125 32.1L54.1875 31.6125L54.475 31C54.6375 30.65 54.775 30.375 54.8 30.375C54.8125 30.375 55.25 30.9125 55.775 31.5625ZM28.3875 31.325C28.575 31.3875 28.6 31.575 28.6 32.8875C28.6 34.375 28.6 34.375 28.325 34.325C28.1625 34.2875 27.7125 34.2 27.325 34.125L26.6 33.9875V32.5375V31.1L27.3875 31.1875C27.8125 31.225 28.2625 31.3 28.3875 31.325ZM38.6 32.55V33.9875L37.8875 34.125C37.4875 34.2 37.0375 34.2875 36.8875 34.325C36.6 34.375 36.6 34.375 36.6 32.875C36.6 31.425 36.6125 31.375 36.8875 31.3125C37.225 31.2375 37.8 31.1625 38.2625 31.1375L38.6 31.125V32.55ZM34.6 33V34.5H32.6H30.6V33V31.5H32.6H34.6V33ZM17.425 31.9375C17.7625 32.0375 18.625 32.4875 19.3375 32.95C20.05 33.4125 21.275 34.0875 22.0625 34.475L23.4875 35.15L22.55 36.125C21.775 36.925 21.6 37.1625 21.6 37.4875C21.6 38.025 22.0875 38.5 22.6125 38.5C22.95 38.5 23.2125 38.3 24.3625 37.175L25.7125 35.8375L26.7375 36.05C27.3125 36.1625 28.1 36.2875 28.5 36.3375L29.225 36.4125L28.4125 37.25C27.7625 37.925 27.6 38.175 27.6 38.4875C27.6 39.025 28.0875 39.5 28.6125 39.5C28.9625 39.5 29.225 39.2875 30.5375 38L32.05 36.5H33.8875H35.725L35.1625 37.3375C34.825 37.8375 34.6 38.325 34.6 38.5375C34.6 39.2 35.375 39.675 36.0375 39.425C36.15 39.375 36.7375 38.6 37.35 37.6875L38.45 36.05L39.1625 35.8875C39.55 35.8 40.2625 35.6 40.7375 35.4375C41.2125 35.275 41.6 35.1625 41.6 35.2C41.6 35.225 41.375 35.7 41.1 36.25C40.825 36.8 40.6 37.3875 40.6 37.5625C40.6 38.2375 41.475 38.7125 42.1125 38.375C42.25 38.3 42.85 37.25 43.475 36L44.5875 33.775L45.6875 33.05C47.6 31.8 48.3625 31.6 50.1 31.8625C51.9 32.15 53.05 32.925 53.75 34.35C54.1125 35.0875 54.1625 35.3 54.1625 36.25C54.1625 37.1375 54.1125 37.425 53.8375 38C53.3875 38.9625 52.9625 39.4125 51.55 40.4625C47.5125 43.475 42.825 45.4 37.6 46.2125C35.55 46.525 29.65 46.525 27.6 46.2125C22.8375 45.475 18.7875 43.9125 14.8375 41.3C12.8375 39.9625 11.975 39.175 11.475 38.2C11.075 37.4125 11.0375 37.25 11.0375 36.2625C11.0375 35.3625 11.0875 35.075 11.3625 34.4875C11.825 33.5125 12.4875 32.825 13.4 32.375C14.6125 31.7875 16.2875 31.6 17.425 31.9375ZM28.3625 48.325C28.525 48.375 28.575 48.6125 28.625 49.475C28.725 51.2125 29.35 52.25 30.75 53.0125C31.475 53.4 31.625 53.4375 32.6 53.4375C33.575 53.4375 33.725 53.4 34.45 53.0125C35.8375 52.2625 36.475 51.2 36.575 49.475C36.6375 48.25 36.575 48.3125 37.825 48.1875L38.6 48.1V49.15C38.6 50.975 38.075 52.3875 36.925 53.6C36.575 53.975 35.9875 54.45 35.625 54.65C34.5875 55.2375 34.6 55.2125 34.6 58.025V60.5H32.6H30.6V58.025C30.6 55.2125 30.6125 55.2375 29.575 54.65C29.2125 54.45 28.625 53.975 28.275 53.6C27.125 52.3875 26.6 50.975 26.6 49.15V48.1L27.3875 48.1875C27.8125 48.225 28.25 48.2875 28.3625 48.325ZM34.575 49.375C34.5 50.75 33.85 51.4375 32.6 51.4375C31.35 51.4375 30.7 50.75 30.625 49.375L30.575 48.5H32.6H34.625L34.575 49.375Z" fill="#FF8F00"/>
<path d="M45.6 22.8125C43.975 23.6375 43.6 23.95 43.6 24.4625C43.6 24.8875 44.125 25.375 44.6 25.375C44.9875 25.375 47.825 24.0375 48.2625 23.65C48.5625 23.3875 48.55 22.575 48.225 22.25C47.825 21.85 47.2875 21.9625 45.6 22.8125Z" fill="#FF8F00"/>
<path d="M40.5374 24.8125C40.2624 24.9125 40.0249 25 39.9999 25C39.9749 25 39.8874 25.175 39.7999 25.4C39.4874 26.1375 39.8999 26.75 40.7249 26.75C42.0374 26.75 42.7624 25.6375 41.9499 24.875C41.6374 24.5875 41.2374 24.5625 40.5374 24.8125Z" fill="#FF8F00"/>
<path d="M45.6625 40.0751C43.975 40.9126 43.6 41.2001 43.6 41.7001C43.6 42.1376 44.1125 42.6626 44.5625 42.6626C44.9875 42.6626 47.775 41.3626 48.2 40.9751C48.6 40.5876 48.5875 39.8501 48.15 39.5126C47.9625 39.3626 47.7 39.2501 47.55 39.2626C47.4125 39.2626 46.5625 39.6251 45.6625 40.0751Z" fill="#FF8F00"/>
<path d="M40.7 42.0375C39.8875 42.3 39.6625 42.6 39.7125 43.3125C39.7375 43.625 40.2875 44.125 40.5875 44.125C41.125 44.125 41.9875 43.7125 42.1625 43.3625C42.425 42.8625 42.4 42.65 41.9875 42.2375C41.5875 41.85 41.4125 41.8125 40.7 42.0375Z" fill="#FF8F00"/>
</svg>
