<svg width="65" height="65" viewBox="0 0 65 65" fill="none" xmlns="http://www.w3.org/2000/svg">
<path fill-rule="evenodd" clip-rule="evenodd" d="M31.5727 0.538879C30.8838 0.714221 29.9069 1.24025 29.3683 1.7287C28.93 2.12949 28.8173 2.16706 28.0909 2.16706C25.6611 2.17958 23.0936 3.66999 22.0415 5.68643L21.6658 6.40033L20.9143 6.46295C19.6243 6.56314 18.7601 6.97645 17.7957 7.94083C17.2337 8.50292 17.0481 8.6885 16.8438 8.71213C16.7431 8.72378 16.6378 8.69608 16.4807 8.65473C15.3284 8.34162 13.7503 8.7925 12.7734 9.71931L12.2599 10.2078L11.1327 10.2328C10.1558 10.2453 9.89281 10.308 9.16639 10.6461C7.08733 11.623 5.8975 13.8524 6.29829 16.0191L6.44858 16.8457L5.64702 17.6849C4.2568 19.1628 3.56796 21.0289 3.71825 22.9451C3.75582 23.4712 3.83097 24.0222 3.88107 24.1725C3.95621 24.4606 3.94369 24.4606 2.74134 24.4606C1.57657 24.4606 1.52647 24.4731 1.16326 24.8238L0.800049 25.187V28.4559C0.800049 32.0003 0.900245 32.9898 1.55152 35.9831C2.55347 40.5044 4.33195 45.0633 6.59888 48.8207C9.4294 53.5424 13.1993 57.2622 17.6079 59.7044L18.4345 60.1678L18.4846 61.5831C18.5222 62.8606 18.5472 63.0359 18.8603 63.4993C19.0607 63.7999 19.4114 64.113 19.737 64.2759C20.2881 64.5389 20.3132 64.5389 32.8627 64.5389C45.4122 64.5389 45.4372 64.5389 45.9883 64.2759C46.3139 64.113 46.6646 63.7999 46.865 63.4993C47.1781 63.0359 47.2032 62.8606 47.2408 61.5831L47.2909 60.1678L48.1801 59.6669C56.2208 55.2332 62.0572 46.3534 64.3617 35.0438L64.8 32.9021V28.9444V24.9741L64.4744 24.7236C64.1864 24.4982 63.9609 24.4606 62.9464 24.4606C61.7817 24.4606 61.7691 24.4606 61.8443 24.1725C61.8944 24.0222 61.9695 23.4712 62.0071 22.9451C62.0948 21.7678 61.8192 20.4277 61.2682 19.313C60.8548 18.4864 59.6525 17.1087 58.9762 16.6954C58.6756 16.5076 58.5378 16.3197 58.4752 15.9815C58.2372 14.7166 57.2102 13.5267 55.9453 13.0633L55.9267 13.0565C55.1936 12.7878 55.1806 12.783 55.1061 12.2117C54.8431 10.2954 53.1022 8.52948 51.0732 8.15375C50.3468 8.02851 50.2967 7.99093 50.0087 7.43986C49.2572 6.01207 47.6165 4.94749 46.0008 4.82224C44.9488 4.7471 43.784 5.03516 42.9574 5.54866L42.4063 5.89935L41.9805 5.58624C41.0411 4.87234 39.413 4.29622 38.3108 4.29622H37.6721L37.3214 3.48213C36.5449 1.69113 34.9292 0.563928 33.038 0.476257C32.4869 0.438683 31.8357 0.476257 31.5727 0.538879ZM33.6642 2.56784C34.6912 2.86843 35.7433 4.27117 35.7433 5.32322C35.7433 5.49857 35.856 5.78663 35.9938 5.96197C36.2318 6.26256 36.3194 6.27508 37.7096 6.32518C39.4756 6.37528 40.1644 6.63829 41.3042 7.6653C42.2184 8.49191 42.5691 8.51696 43.3456 7.79054C43.6462 7.515 44.1347 7.17684 44.4228 7.03907C46.1136 6.27508 48.1676 7.37723 48.5683 9.26843C48.7061 9.85708 48.9441 9.98232 50.1089 10.07C51.4114 10.1702 52.1378 10.571 52.7014 11.4853C53.0271 11.9988 53.0897 12.2492 53.1523 13.2136C53.2274 14.5788 53.4153 14.8168 54.4298 14.8168C55.1312 14.8168 55.8325 15.1424 56.2083 15.6559C56.3335 15.8312 56.4713 16.2821 56.5214 16.6704C56.5715 17.0712 56.6466 17.4469 56.6967 17.5346C56.7468 17.6097 57.1852 17.9354 57.6611 18.261C58.6505 18.9123 59.1515 19.4884 59.6274 20.5404C59.9155 21.1541 59.9781 21.4297 59.9781 22.3941C59.9781 23.0203 59.903 23.7342 59.8153 23.9847L59.64 24.4606H37.647C20.1629 24.4606 15.5789 24.4982 15.3284 24.6234C14.6646 24.9616 14.602 26.0136 15.2032 26.3393C15.3535 26.4144 23.9327 26.4645 39.175 26.4645H62.9214V28.4684V30.4723H32.8627H2.80396V28.4684V26.4645H7.46306C12.0721 26.4645 12.1222 26.4645 12.4102 26.189C12.7734 25.8508 12.786 25.2246 12.4603 24.8238C12.2225 24.5234 12.2098 24.5232 9.15874 24.4857H9.15871H9.15868H9.15865H9.15863H9.1586L9.15386 24.4856L6.08537 24.4481L5.93508 24.0473C5.23371 22.0434 6.11042 19.5009 7.92647 18.3361C8.79066 17.7851 8.9159 17.4093 8.54017 16.5577C7.81375 14.8794 8.43997 13.1761 10.0682 12.4496C10.7069 12.1616 11.283 12.124 12.1723 12.3244C13.049 12.5373 13.3496 12.4246 13.7879 11.6982C14.2638 10.9342 14.6772 10.6586 15.4286 10.596C15.892 10.5459 16.1425 10.6085 16.6184 10.859C17.683 11.4352 18.0713 11.2849 18.6975 10.0199C19.2611 8.90522 20.4008 8.34162 21.791 8.47939C22.7304 8.57958 23.0685 8.36667 23.4067 7.46491C23.8952 6.16236 24.7593 5.2606 26.0995 4.62185C26.8635 4.25864 27.0012 4.23359 28.3539 4.23359H29.7942L30.5456 3.4696C31.5476 2.46765 32.4368 2.20463 33.6642 2.56784ZM62.746 32.8144C61.6689 38.4504 60.7171 41.4062 58.7006 45.4391C55.8826 51.0626 51.8623 55.3835 47.0153 58.0136L46.076 58.5271H44.3601C42.7445 58.5271 42.6318 58.5397 42.3061 58.8152C41.8427 59.2285 41.8427 59.8297 42.3061 60.243C42.6192 60.506 42.757 60.531 43.9593 60.531H45.2744L45.2368 61.4954L45.1993 62.4723H32.8627H20.5261L20.4885 61.4954L20.4509 60.531H29.8318C39.1374 60.531 39.2251 60.531 39.5507 60.268C40.0141 59.9048 40.0141 59.1534 39.5507 58.7901C39.2251 58.5271 39.1374 58.5271 29.431 58.5271H19.6494L18.71 58.0136C12.6607 54.7322 7.93899 48.8207 5.09594 40.9929C4.2067 38.5381 3.70572 36.5968 2.97931 32.8144L2.90416 32.4763H32.8627H62.8212L62.746 32.8144ZM31.8983 10.0699C30.7085 10.4457 30.3077 11.1345 30.8713 11.8609C31.1719 12.2367 31.6979 12.2868 32.3993 11.9987C32.6498 11.8985 33.1508 11.8108 33.514 11.8108C34.8416 11.8233 35.9187 12.65 36.3695 14.0151C36.5198 14.466 36.7453 14.8793 36.8705 14.9419C37.2588 15.1423 37.8474 15.0922 38.123 14.8167C38.5363 14.4034 38.4987 13.8022 37.9977 12.7376C36.9206 10.3956 34.3782 9.28088 31.8983 10.0699ZM15.8419 17.3091C16.393 16.2194 17.5578 15.2425 18.7476 14.8793C19.9499 14.491 22.1167 14.7666 22.53 15.3552C23.0059 16.0441 22.4548 17.046 21.6783 16.8957C21.4529 16.8456 20.9018 16.7705 20.4259 16.7329C19.6869 16.6703 19.4991 16.7079 18.8854 17.0085C18.2967 17.2965 18.0963 17.4969 17.6329 18.1983C17.0568 19.1 16.7186 19.3004 16.155 19.075C15.5413 18.8496 15.4161 18.1357 15.8419 17.3091ZM45.0114 16.5075C44.1597 16.758 43.7589 17.1086 43.7589 17.6221C43.7715 18.4362 44.3977 18.7869 45.337 18.4989C45.6626 18.3987 46.101 18.3235 46.3264 18.3235C47.366 18.3235 48.5057 19.0625 49.0192 20.0644C49.4576 20.9411 50.4219 21.0038 50.8853 20.1897C51.0482 19.8891 51.0482 19.8014 50.8478 19.2754C50.7225 18.9623 50.3468 18.3861 49.9961 18.0104C48.7437 16.6327 46.7272 16.0315 45.0114 16.5075ZM28.1409 19.5132C28.8298 18.8494 29.431 18.4987 30.3578 18.2482C31.6979 17.8725 32.4869 18.1856 32.4869 19.0748C32.4869 19.6384 32.0486 20.0768 31.4975 20.0768C30.8587 20.0768 30.22 20.3523 29.5186 20.9159C28.667 21.6048 28.2161 21.6674 27.7652 21.1539C27.3018 20.6154 27.3895 20.2396 28.1409 19.5132ZM58.0745 36.3837C57.7238 36.7595 57.5234 37.5485 57.6612 37.9242C57.7989 38.2749 58.2498 38.6131 58.613 38.6131C59.5899 38.6131 60.1535 36.6968 59.3019 36.246C58.8886 36.0205 58.35 36.0831 58.0745 36.3837ZM56.0454 41.7068C56.321 41.0305 56.5464 40.6798 56.7719 40.5546C56.9472 40.4544 57.1977 40.3792 57.3229 40.3667C57.611 40.3667 58.2873 41.0305 58.2873 41.3186C58.2873 41.6317 57.3605 43.7608 56.584 45.2137C55.2564 47.7061 52.9519 50.8998 52.3132 51.1503C51.9124 51.3006 51.3237 51.1002 51.1484 50.7495C50.8728 50.2485 51.0231 49.8352 51.7871 48.8834C53.3652 46.9295 55.056 44.074 56.0454 41.7068Z" fill="#FF8F00"/>
</svg>
