<svg width="48" height="49" viewBox="0 0 48 49" fill="none" xmlns="http://www.w3.org/2000/svg">
<path d="M15.3283 6.45646C12.8439 6.89708 10.1252 8.45333 6.9002 11.294C5.57832 12.4565 3.59082 14.4721 3.00957 15.2408C2.34395 16.1315 2.03457 17.2471 2.23145 18.0908C2.30645 18.4377 2.27832 18.569 1.9502 19.3565C1.09707 21.3908 0.637695 23.7065 0.637695 25.9565C0.64707 29.894 2.1002 33.494 4.8752 36.4471C5.32519 36.9158 5.85019 37.5721 6.04707 37.9096C6.49707 38.6502 7.55645 39.7846 8.2502 40.2533C9.42207 41.0502 10.8471 41.6221 12.4689 41.9502C13.5283 42.1658 16.2096 42.2783 17.2408 42.1565C17.8033 42.0815 18.0096 42.0908 18.3189 42.2127C18.9471 42.4565 22.0689 42.4096 23.3252 42.1471C26.9064 41.3783 28.3221 39.8033 27.3096 37.7315C27.0096 37.1033 25.9221 35.969 25.0408 35.3315L24.3846 34.8627L24.3752 34.3471C24.3658 33.3721 23.9814 32.2283 23.3533 31.3096L23.1752 31.0377L23.4564 30.8033C23.6064 30.6721 23.8596 30.3533 24.0096 30.0815C24.2346 29.6783 24.3471 29.5752 24.6846 29.4721C25.6221 29.1908 26.2877 28.7221 26.7939 27.9721C26.9814 27.6908 27.1408 27.4471 27.1408 27.4377C27.1408 27.4283 27.4127 27.4846 27.7502 27.5502C28.5846 27.7377 29.8689 27.7283 30.4502 27.5408C31.0971 27.3252 31.7439 26.8096 32.1939 26.144L32.5783 25.5721L33.0002 25.7127C33.3002 25.8065 33.8721 25.8533 34.9689 25.8533C36.6189 25.8627 37.4814 25.7127 38.7283 25.2065L39.2627 24.9908L39.8064 25.2533C41.5877 26.0971 43.7064 26.3127 45.5252 25.8346C47.9627 25.1877 48.6096 23.5377 47.4002 20.9877C46.7252 19.5627 45.7689 18.344 44.2971 17.0221L43.7908 16.5721L43.8846 16.1971C44.0158 15.6908 43.8658 15.1377 43.4814 14.7065C42.9658 14.1158 40.4721 13.0002 38.8877 12.6533C38.7283 12.6158 38.5596 12.4565 38.4096 12.194C37.4533 10.5721 34.5939 9.01583 31.2846 8.32208C30.3658 8.13458 29.7658 8.07833 28.2658 8.03146C26.2783 7.97521 24.9377 8.08771 23.0721 8.47208L22.1814 8.65021L21.7127 8.24708C20.6721 7.37521 19.6971 6.85021 18.5627 6.55958C17.7096 6.34396 16.2377 6.29708 15.3283 6.45646ZM18.6564 8.21896C20.4658 8.85646 21.8721 10.3658 23.4002 13.2908C26.7939 19.7971 27.2814 27.194 24.3658 27.9252C24.1314 27.9815 24.0939 27.9252 23.5408 26.9221C22.1721 24.4471 20.7564 22.5627 18.9189 20.8002C16.6877 18.644 14.3908 17.3221 11.8596 16.7221C9.60019 16.1783 6.9377 16.3565 4.58457 17.1815C4.15332 17.3315 3.77832 17.444 3.75957 17.4158C3.65645 17.3127 3.98457 16.5908 4.3502 16.094C4.94082 15.3158 7.92207 12.419 9.14082 11.444C11.4846 9.56896 13.5096 8.46271 15.3752 8.05021C16.3221 7.83458 17.7846 7.90958 18.6564 8.21896ZM29.0158 9.60646C31.0689 9.77521 32.6721 10.1971 34.2939 10.9565C35.4096 11.4908 36.3846 12.1283 36.7408 12.5877L37.0221 12.944L36.3939 13.3565C35.5033 13.9377 34.2658 15.2221 33.6658 16.1971C32.8221 17.5565 32.5033 18.569 32.1096 21.1283C31.9127 22.4033 31.4721 24.0908 31.1627 24.794C30.6564 25.9096 29.8127 26.3315 28.4814 26.1065C28.1064 26.0408 27.7689 25.9658 27.7221 25.919C27.6846 25.8815 27.6939 25.6283 27.7502 25.3565C27.8908 24.6065 27.8627 22.3658 27.7033 21.2315C27.1971 17.8002 25.6877 13.7596 23.7846 10.7877C23.5314 10.3846 23.3346 10.0471 23.3533 10.0283C23.4377 9.95333 25.3314 9.67208 26.2502 9.60646C27.6846 9.49396 27.7783 9.49396 29.0158 9.60646ZM39.7221 14.5283C40.7252 14.8565 41.7939 15.3533 42.1877 15.6721L42.4221 15.869L41.6064 16.6283C41.1564 17.0408 40.5846 17.6877 40.3408 18.0627C39.4971 19.319 38.8221 21.1283 38.3721 23.3315C38.3064 23.669 38.2596 23.7158 37.8283 23.8752C36.7127 24.2877 34.9596 24.4377 33.6846 24.2127C33.1971 24.1283 33.0939 24.0815 33.1314 23.9502C33.2627 23.519 33.5721 21.9627 33.7502 20.8002C33.8627 20.0783 34.0408 19.2158 34.1439 18.8783C34.6877 17.0971 36.0189 15.4096 37.6314 14.4346C38.2596 14.0502 38.2877 14.0596 39.7221 14.5283ZM43.3783 18.2971C44.4939 19.2533 45.4408 20.4721 46.0033 21.6533C46.3127 22.2908 46.3596 22.4877 46.3596 23.0315C46.3596 23.6221 46.3408 23.6971 46.0971 23.9033C45.6939 24.2408 44.9627 24.4283 43.8283 24.4752C43.0877 24.5127 42.6189 24.4752 42.1689 24.3721C41.4658 24.2127 40.0596 23.6877 39.9846 23.5658C39.8627 23.369 40.3783 21.5596 40.9314 20.2846C41.3439 19.3096 42.4127 17.7533 42.6658 17.7533C42.7127 17.7533 43.0314 17.9971 43.3783 18.2971ZM10.0408 18.0346C13.0221 18.3346 15.4221 19.5721 17.9627 22.1033C19.3689 23.519 20.5127 24.9627 21.5158 26.6221C22.4158 28.094 22.8002 28.8908 22.7346 29.1065C22.6596 29.3315 22.1439 29.9408 22.0221 29.9408C21.9752 29.9408 21.5627 29.7252 21.1033 29.4721C19.2096 28.394 16.2189 27.2408 14.3908 26.8846C13.1908 26.6502 11.5314 26.669 10.4814 26.9221C8.66269 27.3627 7.23769 28.3002 6.22519 29.7252C5.52207 30.7002 4.9877 32.1346 4.95957 33.0908C4.95019 33.2877 4.92207 33.5596 4.88457 33.6908C4.81894 33.9158 4.8002 33.8877 4.41582 33.3346C3.50645 31.994 2.80332 30.2877 2.42832 28.5346C2.1377 27.1752 2.1377 24.9346 2.41895 23.3596C2.6252 22.2533 3.13145 20.5377 3.51582 19.6658C3.72207 19.2065 3.75957 19.169 4.4627 18.8783C5.68145 18.3721 7.35957 18.0158 8.7752 17.9502C8.94394 17.9502 9.50644 17.9877 10.0408 18.0346ZM14.3158 28.4783C15.8814 28.8065 18.9846 30.0252 20.4752 30.8971C21.7033 31.619 22.4533 32.5002 22.6783 33.5033C22.7533 33.8502 22.7439 33.8877 22.6127 33.8221C22.5189 33.7846 22.1158 33.7377 21.7033 33.7096C21.0658 33.6815 20.8596 33.7096 20.3064 33.9158C18.4314 34.6283 17.0064 36.1002 16.3596 38.0033C16.0877 38.7908 16.0596 39.4565 16.2658 40.1221C16.3408 40.3752 16.4064 40.6002 16.4064 40.619C16.4064 40.7127 13.2752 40.5252 12.6564 40.394C9.98457 39.8127 8.10019 38.5565 7.22832 36.7658C6.48769 35.2565 6.30019 33.8315 6.65645 32.4346C6.9002 31.4783 7.23769 30.8783 7.94082 30.1283C8.83144 29.1815 10.0221 28.5627 11.3627 28.3565C12.1127 28.244 13.4439 28.3002 14.3158 28.4783ZM22.6502 35.6127C23.5127 36.1002 25.0596 37.2815 25.4346 37.7502C26.1377 38.6127 26.2221 39.0346 25.7627 39.4752C24.8627 40.3283 22.5658 40.8627 20.1096 40.7971C18.8533 40.769 18.7596 40.7502 18.4033 40.5158C17.6064 39.9908 17.5127 39.1096 18.1314 37.8627C18.7033 36.7002 19.7346 35.7908 20.9533 35.3596C21.5533 35.144 21.9002 35.1908 22.6502 35.6127Z" fill="#FF8F00"/>
<path d="M15.4219 9.63467C13.8282 10.0472 10.9875 11.7909 9.30942 13.3753C8.72817 13.919 9.00005 14.7534 9.75942 14.7534C10.0219 14.7534 10.2563 14.6034 11.0625 13.9565C12.2719 12.9722 13.3125 12.269 14.2969 11.7815C15.5157 11.1722 15.9375 11.0597 16.8657 11.1253C17.3063 11.1628 17.7844 11.2097 17.925 11.2472C18.1313 11.294 18.2344 11.2472 18.4688 11.0222C18.9563 10.5347 18.8157 10.019 18.1313 9.72842C17.6438 9.52217 16.05 9.46592 15.4219 9.63467Z" fill="#FF8F00"/>
<path d="M40.6779 27.3439C39.3654 27.7095 38.5685 28.7314 38.5872 30.0345C38.5966 31.4783 39.6654 32.6126 41.1185 32.7345C41.981 32.8001 42.5716 32.5658 43.2372 31.9095C43.8747 31.272 44.1185 30.6158 44.0341 29.7533C43.8841 28.1126 42.2247 26.922 40.6779 27.3439ZM41.7466 28.947C42.1872 29.1251 42.3935 29.4064 42.4404 29.8845C42.5904 31.2064 40.8747 31.6751 40.256 30.4845C39.9747 29.9501 40.256 29.2001 40.8091 28.9564C41.1935 28.7876 41.3716 28.7876 41.7466 28.947Z" fill="#FF8F00"/>
<path d="M35.6725 28.3001C35.2413 28.722 35.4756 29.5095 36.0475 29.5658C36.6381 29.6314 36.9381 29.3783 36.9381 28.8251C36.9381 28.1408 36.1506 27.8126 35.6725 28.3001Z" fill="#FF8F00"/>
<path d="M32.5219 29.0878C32.3625 29.2565 32.25 29.4628 32.25 29.6128C32.25 29.9409 32.7188 30.4097 33.0469 30.4097C33.1969 30.4097 33.4031 30.2972 33.5719 30.1378C33.7313 29.969 33.8438 29.7628 33.8438 29.6128C33.8438 29.2847 33.375 28.8159 33.0469 28.8159C32.8969 28.8159 32.6906 28.9284 32.5219 29.0878Z" fill="#FF8F00"/>
</svg>
