<svg width="103" height="81" viewBox="0 0 103 81" fill="none" xmlns="http://www.w3.org/2000/svg">
<path d="M9.88778 0.812851C9.11003 0.968667 8.99336 2.60473 9.53779 5.44837C9.73223 6.38327 9.84889 7.1234 9.81001 7.1234C9.1878 7.1234 0.74915 10.3566 0.360272 10.7461C-0.145269 11.2136 -0.106381 11.7589 0.39916 14.7584C0.74915 16.6671 1.37135 20.8352 1.79912 24.0684C2.4991 29.2882 3.86017 39.611 5.53235 51.7257C5.84345 54.063 6.3101 57.4909 6.54343 59.3218C6.77676 61.1526 7.12675 62.8276 7.32119 63.1003C7.63229 63.4898 9.77112 63.5288 16.4209 63.334C26.5706 63.0614 25.5984 62.4381 24.354 68.476C23.2652 73.7737 23.3041 75.3708 24.6651 76.8511C25.3262 77.6302 26.3373 78.2145 27.4651 78.4482C36.6815 80.5517 48.1923 81.4476 57.7198 80.7854C63.7474 80.3959 71.6805 79.2662 74.9471 78.4092C76.5415 77.9807 78.3303 76.3836 78.6414 75.0981C78.7581 74.5917 78.447 71.7091 77.9025 68.6707L76.9692 63.1003L85.9134 63.2561C93.5743 63.373 94.8965 63.334 95.1687 62.8276C95.3243 62.516 96.102 57.413 96.8798 51.531C99.6797 30.4569 101.935 14.3299 102.363 12.3432C102.674 10.7851 102.324 10.5513 97.2298 8.79842C92.4466 7.12339 92.6799 7.47398 93.341 2.99427C93.5743 1.47506 93.5354 0.968667 93.1465 0.812851C91.8244 0.306449 79.8469 2.64368 67.7139 5.76C61.2197 7.43502 59.703 7.98038 60.1697 8.44783C60.2864 8.56469 62.1919 8.40887 64.4085 8.05829C70.3583 7.24025 80.4302 6.03269 84.1635 5.72105C87.1189 5.48733 87.3523 5.52628 87.3523 6.1885C87.3523 6.61699 86.8078 11.2136 86.1856 16.4724C85.5245 21.7311 84.5523 29.8725 84.0079 34.586C83.4635 39.2994 82.8024 44.8309 82.5691 46.8565L82.0635 50.5182L77.8248 51.2193C70.5527 52.4269 59.5086 55.3485 56.5142 56.8677C55.7365 57.2572 55.4643 57.6467 55.542 58.2311C55.7365 59.6334 56.7476 59.945 59.2364 59.3997C60.4808 59.127 66.9362 57.9584 73.5471 56.7898C86.1467 54.5304 86.5745 54.3746 86.5745 52.4269C86.5745 51.9595 86.9245 48.96 87.3523 45.8047C87.78 42.6495 88.4022 38.0139 88.7522 35.5598C89.0633 33.1057 89.4911 29.9504 89.6855 28.5481C89.88 27.1458 90.4244 23.2893 90.8522 19.9782C91.2799 16.6671 91.7466 13.395 91.8244 12.7328L92.0188 11.5252L94.3521 12.2653C97.1131 13.1613 96.9964 12.6938 95.8687 20.0172C95.4409 22.8998 94.8187 26.912 94.5076 28.9376C94.1965 30.9632 93.5743 35.0924 93.1854 38.0918C92.0188 46.3111 90.4633 56.7119 90.23 57.413C90.0744 57.9584 88.8689 58.0752 81.5969 58.309C75.1804 58.5427 73.0416 58.7375 72.6138 59.127C72.1082 59.5944 72.186 60.5683 73.0804 66.4114C74.0138 72.7609 74.0526 73.1894 73.4304 73.8127C72.2249 75.0592 58.4586 76.8511 50.1755 76.8511C46.3256 76.8511 36.7592 75.9162 32.326 75.0981C29.2539 74.5138 27.5817 73.4621 27.9706 72.4103C28.0873 72.1766 28.6317 69.1771 29.2539 65.7881C30.265 60.0619 30.265 59.5944 29.6817 59.127C29.0595 58.6596 21.5541 58.1531 15.371 58.1531C11.8711 58.1531 12.1822 58.5816 11.3655 52.6996C10.7433 48.2978 6.3101 18.8096 5.76568 15.3816C5.57124 14.252 5.57124 13.2392 5.72679 13.1223C5.92123 13.0055 7.01008 12.6159 8.17672 12.1874L10.2767 11.4862L10.7044 14.0572C11.21 17.3683 12.1822 24.5748 15.2543 48.142C15.6432 51.1414 16.1487 53.7903 16.382 54.1019C16.6154 54.4136 18.6764 54.9589 21.243 55.4264C31.7427 57.2183 41.348 58.9712 42.6313 59.3218C44.809 59.945 46.0534 59.7892 46.5201 58.9322C47.2978 57.4909 46.4034 56.8287 42.1646 55.5043C35.2815 53.3618 27.2317 51.492 22.4097 50.8298L20.2708 50.5571L19.9986 48.6094C19.8431 47.5187 18.9097 39.8058 17.9376 31.4697C16.9654 23.0945 15.9154 14.1741 15.6043 11.6031C14.7876 4.78615 14.5154 5.44838 18.0542 5.72105C22.7985 6.14955 31.0816 7.08444 36.7592 7.90247C39.6369 8.33097 42.0869 8.60365 42.1646 8.48679C42.2424 8.40888 42.2035 8.17515 42.0869 7.94143C41.8147 7.51294 26.4151 3.7344 18.3264 2.13728C11.0155 0.695985 10.7044 0.618081 9.88778 0.812851Z" fill="#F48E28"/>
</svg>
