<svg width="40" height="54" viewBox="0 0 40 54" fill="none" xmlns="http://www.w3.org/2000/svg">
<path d="M15.0095 0.717171C12.754 1.76893 10.5763 3.79454 9.72077 5.70328C9.17634 6.94981 8.74858 7.3783 8.12637 7.3783C5.67644 7.41726 2.09876 10.183 0.815467 13.0266C-1.79001 18.7529 2.68208 26.0762 8.74858 26.0762C9.56522 26.0762 9.83743 26.3099 9.99298 27.128C10.1485 27.7512 10.3819 28.9199 10.5763 29.7769C10.7707 30.6728 10.7707 31.4908 10.5763 31.7246C9.9541 32.4647 9.02079 36.6717 9.02079 38.7363C9.02079 48.28 18.4316 55.6034 27.5314 53.1882C31.8479 52.0586 35.5811 49.137 37.4866 45.3974C37.9144 44.5794 38.4977 42.7096 38.8088 41.2293C39.7421 36.7107 38.42 32.1141 35.1534 28.4135C33.9867 27.089 33.4812 26.0762 33.1312 24.3233C32.7034 22.2198 32.7034 21.9861 33.3645 21.5965C34.7645 20.8174 37.0978 18.5191 37.6811 17.3505C38.6144 15.5976 38.4977 11.858 37.4866 9.87136C36.0867 7.14458 33.1312 5.4306 29.7869 5.4306C28.348 5.4306 28.0369 5.27479 27.4536 4.26198C26.637 2.89859 24.1481 1.06776 22.2815 0.444492C20.2982 -0.25668 16.8372 -0.100864 15.0095 0.717171ZM20.7649 4.26198C22.7871 4.84629 24.2648 6.48236 25.0814 9.09228L25.7814 11.3127L27.2203 10.4557C28.9313 9.44287 31.0702 9.36496 32.4701 10.2609C33.6756 11.0789 34.4923 13.2214 34.1034 14.7017C33.7145 16.2598 32.0035 17.8959 30.7202 17.8959C29.5924 17.8959 28.0758 19.0645 28.0758 19.9215C28.0758 20.1942 28.348 21.4797 28.6591 22.7651C28.9702 24.0506 29.2035 25.2192 29.2424 25.3751C29.2424 25.5698 28.0758 25.6867 26.637 25.6867C23.837 25.6867 22.6315 26.3099 22.6315 27.7512C22.6315 29.4263 23.7204 29.9716 26.8703 29.9716C30.9146 29.9716 32.1979 30.6728 33.7145 33.6333C34.6867 35.581 34.8812 36.399 34.8423 38.6973C34.8034 42.9433 32.9757 46.0207 29.1647 48.0852C27.3758 49.098 26.7147 49.2539 23.9926 49.2539C19.6372 49.2539 17.0706 47.7736 14.5429 43.8782C13.5707 42.398 13.4929 41.8916 13.4929 38.5415C13.4929 35.3862 13.6095 34.6461 14.3484 33.4385L15.2428 32.0362L14.3095 27.5175C13.804 25.0245 13.1818 22.6872 12.8707 22.3366C12.4818 21.8692 11.9374 21.7523 10.693 21.9471C7.03751 22.4535 4.35426 20.1552 4.35426 16.5325C4.35426 14.8964 4.54869 14.5069 5.90977 13.1435C7.42639 11.6243 7.46528 11.5853 9.99298 11.7412L12.5207 11.858L12.754 10.4946C13.3373 6.94981 14.2318 5.62537 16.7983 4.49571C18.4316 3.79454 18.8983 3.75558 20.7649 4.26198Z" fill="#F48E28"/>
</svg>
